HIERARCHY
ROOT hip
{
	OFFSET 0.000000 0.000000 0.000000 
	CHANNELS 6 Xposition Yposition Zposition Xrotation Zrotation Yrotation
	JOINT abdomen
	{
		OFFSET 0.000000 3.402643 0.000000 
		CHANNELS 3 Xrotation Zrotation Yrotation
		JOINT chest
		{
			OFFSET 0.000000 8.438565 -0.680529 
			CHANNELS 3 Xrotation Zrotation Yrotation
			JOINT neck
			{
				OFFSET 0.000000 10.207942 -0.272212 
				CHANNELS 3 Xrotation Zrotation Yrotation
				JOINT head
				{
					OFFSET 0.000000 3.130431 0.000000 
					CHANNELS 3 Xrotation Zrotation Yrotation
					End Site
					{
						OFFSET 0.000000 3.130435 0.000000 
					}
				}
			}
			JOINT lCollar
			{
				OFFSET 3.470700 6.669187 -0.816635 
				CHANNELS 3 Yrotation Zrotation Xrotation
				JOINT lShldr
				{
					OFFSET 3.198488 0.000000 0.000000 
					CHANNELS 3 Zrotation Yrotation Xrotation
					JOINT lForeArm
					{
						OFFSET 10.139888 0.000000 0.000000 
						CHANNELS 3 Yrotation Zrotation Xrotation
						JOINT lHand
						{
							OFFSET 8.370511 0.000000 0.000000 
							CHANNELS 3 Zrotation Yrotation Xrotation
							End Site
							{
								OFFSET 4.083176 0.000000 0.000000 
							}
						}
					}
				}
			}
			JOINT rCollar
			{
				OFFSET -3.470700 6.669187 -0.816635 
				CHANNELS 3 Yrotation Zrotation Xrotation
				JOINT rShldr
				{
					OFFSET -3.198488 0.000000 0.000000 
					CHANNELS 3 Zrotation Yrotation Xrotation
					JOINT rForeArm
					{
						OFFSET -10.139888 0.000000 0.000000 
						CHANNELS 3 Yrotation Zrotation Xrotation
						JOINT rHand
						{
							OFFSET -8.370511 0.000000 0.000000 
							CHANNELS 3 Zrotation Yrotation Xrotation
							End Site
							{
								OFFSET -4.083176 0.000000 0.000000 
							}
						}
					}
				}
			}
		}
	}
	JOINT lThigh
	{
		OFFSET 5.308129 -1.633274 1.361059 
		CHANNELS 3 Xrotation Zrotation Yrotation
		JOINT lShin
		{
			OFFSET -2.041588 -20.007561 0.000000 
			CHANNELS 3 Xrotation Zrotation Yrotation
			JOINT lFoot
			{
				OFFSET 0.000000 -19.190928 -1.224953 
				CHANNELS 3 Xrotation Yrotation Zrotation
				End Site
				{
					OFFSET 0.000000 -2.449906 4.627600 
				}
			}
		}
	}
	JOINT rThigh
	{
		OFFSET -5.308129 -1.633274 1.361059 
		CHANNELS 3 Xrotation Zrotation Yrotation
		JOINT rShin
		{
			OFFSET 2.041588 -20.007561 0.000000 
			CHANNELS 3 Xrotation Zrotation Yrotation
			JOINT rFoot
			{
				OFFSET 0.000000 -19.190928 -1.224953 
				CHANNELS 3 Xrotation Yrotation Zrotation
				End Site
				{
					OFFSET 0.000000 -2.449906 4.627600 
				}
			}
		}
	}
}
MOTION
Frames: 18
Frame Time: 0.033333
-0.351511 48.458366 2.224079 -12.178519 -3.722105 9.111128 0.000000 0.000000 0.000000 15.037602 7.424274 7.652613 28.295263 -1.132805 -0.214995 -19.710531 0.497378 2.968892 -3.474785 14.967667 24.994398 -92.666725 5.084874 0.027494 -50.488914 3.664802 80.416412 -16.369173 -9.701618 -55.926064 -15.297334 -11.863361 21.125334 71.033424 -0.680875 71.727768 33.279381 -37.300621 31.824190 37.107075 -5.415215 -81.077705 14.380313 18.259764 24.152254 26.834564 0.496228 -0.840186 9.222127 -15.696231 4.921667 33.847469 8.779149 3.518146 0.915379 -1.266302 -1.047406 9.139970 -6.501982 14.332561 
-0.289972 48.532829 2.306210 -12.724243 -3.392872 8.187721 0.000000 0.000000 0.000000 15.541122 7.241530 7.581071 28.934731 -1.874979 -0.273611 -19.568695 0.653031 3.564778 -2.617470 14.058303 24.997244 -92.012192 5.783034 -0.329817 -50.620510 3.663653 79.861443 -16.106138 -9.925431 -55.946945 -14.454586 -11.897310 21.308107 71.049484 -0.391709 71.675827 32.661076 -37.012863 32.005390 37.363949 -5.548093 -81.117035 17.183208 17.235319 23.514858 23.866526 0.024224 -0.729121 9.014038 -13.881167 4.955527 34.468418 8.182756 3.327846 1.068795 -1.244464 -0.994592 9.219983 -5.615684 14.271228 
-0.225229 48.565376 2.336768 -12.588390 -3.099205 7.374098 0.000000 0.000000 0.000000 15.364673 6.990630 7.527761 29.260336 -2.324187 -0.303277 -19.387466 0.399506 3.808705 -1.914711 14.257495 24.997803 -92.357719 6.240984 -0.109387 -50.614521 3.769710 79.621971 -16.088110 -10.455768 -55.771431 -13.901724 -12.221843 21.355843 71.445831 -0.137241 71.867592 31.821321 -36.787510 31.975906 37.618969 -5.565657 -81.162781 18.849665 16.091345 22.853550 21.300169 -0.186115 -0.644823 9.197754 -11.929627 5.157649 33.971607 7.518708 3.129824 1.796073 -1.180993 -0.935606 9.569249 -5.030295 14.375096 
-0.192803 48.577183 2.313501 -11.976427 -3.023748 7.070242 0.000000 0.000000 0.000000 14.721968 6.912868 7.545956 29.270710 -2.363246 -0.313040 -19.285234 0.321554 3.808698 -1.785074 14.806674 24.989367 -92.703537 6.624167 0.119011 -51.337044 3.176519 80.845703 -16.736832 -10.148790 -55.645882 -13.896080 -12.353933 21.325186 71.721519 -0.048480 72.015999 31.089792 -36.664436 31.144669 37.678703 -5.497349 -81.192635 19.068045 15.370384 22.510433 19.740971 0.009363 -0.511907 9.538261 -11.123640 5.358953 32.666451 7.205166 3.026313 2.712612 -0.966217 -0.859896 9.652826 -5.282326 13.634521 
-0.156736 48.614727 2.291293 -11.651272 -2.693146 7.254107 0.000000 0.000000 0.000000 14.384601 6.623177 7.491708 29.200243 -2.109348 -0.293489 -19.295134 0.185190 3.554732 -2.254969 14.969622 24.991749 -92.645187 6.739316 0.081395 -51.999146 2.542313 81.904381 -17.310530 -9.694978 -55.595215 -14.259692 -12.131971 21.292475 71.635506 -0.127456 71.978897 30.668819 -36.550758 29.898542 37.439400 -5.438392 -81.178986 18.740360 14.733667 22.206799 19.359673 0.357692 -0.375919 9.827646 -11.091058 5.401630 31.909203 6.727454 2.883321 3.263258 -0.623131 -0.712849 9.612002 -5.805362 13.822492 
-0.117336 48.656391 2.275054 -11.559892 -2.128735 7.768801 0.000000 0.000000 0.000000 14.313953 6.111639 7.366579 29.109159 -1.650373 -0.263844 -19.419371 -0.097512 3.115230 -3.098849 14.868881 24.995693 -92.408371 6.565315 -0.069576 -52.212250 2.185940 82.261688 -17.486479 -9.367584 -55.629940 -14.842450 -11.723553 21.267929 71.277077 -0.323237 71.801895 30.672043 -36.456673 28.748926 36.940502 -5.451821 -81.143761 17.994030 14.208187 22.033489 20.121115 0.702473 -0.367949 9.996954 -11.597879 5.351212 31.794371 6.083342 2.680105 3.381351 -0.331012 -0.656677 9.452757 -6.127292 14.014635 
-0.097699 48.631062 2.236031 -11.198511 -1.603012 8.567633 0.000000 0.000000 0.000000 13.997417 5.560922 7.251733 28.919546 -0.986322 -0.205216 -19.629822 -0.468304 2.500076 -4.142132 15.075037 24.991966 -92.494255 6.029445 -0.036916 -51.809143 2.290618 81.959953 -17.122433 -9.215257 -55.773773 -15.604522 -11.377290 21.203873 70.921127 -0.700076 71.666344 31.198494 -36.534950 28.224764 36.186638 -5.448914 -81.048912 16.067989 14.050517 22.064428 22.232874 1.062899 -0.451345 9.998679 -12.629864 5.320982 31.689219 5.615077 2.561082 3.129364 -0.145860 -0.644261 9.086639 -6.839662 13.472281 
-0.120940 48.490074 2.153349 -10.225891 -1.406175 9.514581 0.000000 0.000000 0.000000 13.074350 5.173976 7.197612 28.545271 -0.136718 -0.146507 -19.867714 -0.751571 1.826271 -5.114211 16.012070 24.988705 -93.303925 5.108972 0.390464 -50.863400 2.775480 81.334496 -16.347471 -9.185805 -56.013287 -16.441818 -11.321550 21.025431 70.799690 -1.264801 71.703987 32.115849 -36.848476 28.509533 35.237503 -5.423571 -80.933372 12.676584 14.400136 22.350386 25.607893 1.527112 -0.513935 9.712607 -14.164335 5.239562 30.983551 5.585132 2.546283 2.651627 -0.106817 -0.642149 8.557898 -8.134121 12.003983 
-0.178259 48.311451 2.070510 -9.149072 -1.624424 10.179675 0.000000 0.000000 0.000000 12.032850 5.096028 7.236509 28.173029 0.468749 -0.097653 -20.065163 -0.634555 1.474627 -5.577756 17.178364 24.997244 -94.317993 4.341100 0.945782 -50.106773 3.195193 81.020233 -15.756738 -9.124169 -56.215126 -16.950041 -11.546516 20.839045 70.991234 -1.753702 71.941040 32.849991 -37.274181 29.110451 34.635937 -5.398319 -80.849869 9.509120 15.007940 22.721167 28.354767 1.959966 -0.601142 9.526099 -15.294168 5.034048 30.102898 5.985202 2.652899 2.149462 -0.291483 -0.719687 8.359412 -8.886546 11.489806 
-0.233664 48.226124 2.067802 -8.877484 -1.960839 10.181788 0.000000 0.000000 0.000000 11.748332 5.279524 7.287811 28.094904 0.468749 -0.097653 -20.233795 0.019523 1.699222 -5.171859 17.518879 24.994663 -94.620209 4.174431 1.103234 -49.867729 3.452941 80.990639 -15.406077 -9.168319 -56.331261 -16.749546 -11.774426 20.814734 71.238235 -1.853136 72.104675 32.936012 -37.392235 29.286440 34.466976 -5.461632 -80.815598 8.678199 15.554304 22.971083 29.129446 1.911287 -0.659336 9.417445 -15.434018 4.950397 30.061571 6.473344 2.790807 1.662448 -0.593207 -0.843587 8.620702 -8.656511 12.536037 
-0.220238 48.300503 2.158312 -9.758145 -1.780714 9.721465 0.000000 0.000000 0.000000 12.656847 5.241344 7.238291 28.437359 0.058594 -0.136719 -20.354300 0.683078 2.226753 -4.414073 16.624203 24.994766 -93.976524 4.516045 0.753552 -49.957432 3.708908 80.871437 -14.952104 -9.385453 -56.422691 -16.050673 -11.687262 21.001217 71.153267 -1.552389 71.987411 32.616516 -37.127956 29.272549 34.658615 -5.567363 -80.829468 10.827005 15.320550 22.826515 27.653181 1.413512 -0.680539 9.297557 -14.522696 5.122957 31.284134 6.346848 2.770628 1.320878 -0.650911 -0.854516 8.721701 -8.148064 12.566360 
-0.153632 48.457928 2.274848 -11.055754 -1.282367 9.133142 0.000000 0.000000 0.000000 13.953611 5.000434 7.117198 28.966228 -0.478514 -0.166091 -20.369318 1.063250 2.725227 -3.700979 15.208920 24.996424 -92.940956 5.035414 0.181803 -50.241962 3.886977 80.742699 -14.466259 -9.664775 -56.485775 -15.272987 -11.432478 21.254492 70.871643 -1.084101 71.713623 32.160343 -36.708691 29.354496 35.100300 -5.663663 -80.870941 14.187241 14.413383 22.309557 24.932657 0.906472 -0.621976 9.202546 -13.011526 5.494210 32.780235 5.741393 2.604198 1.305316 -0.486834 -0.826702 8.972816 -7.428872 13.198301 
-0.064563 48.615276 2.359826 -12.003374 -0.714413 8.662771 0.000000 0.000000 0.000000 14.882334 4.623774 6.985777 29.475914 -0.869134 -0.214967 -20.260567 0.994739 2.988847 -3.315181 13.968369 24.993011 -92.030830 5.499552 -0.330618 -50.616096 3.903736 80.715919 -14.079329 -9.873302 -56.539192 -14.763459 -11.181140 21.445557 70.596313 -0.700772 71.461075 31.693228 -36.334099 29.563732 35.624298 -5.743104 -80.921967 17.166101 13.192743 21.629856 22.004284 0.682474 -0.482095 9.212128 -11.413332 5.992806 33.561485 4.940864 2.365889 1.761205 -0.174910 -0.763113 9.370158 -6.898238 14.599391 
0.009828 48.715469 2.387610 -12.186013 -0.318769 8.447351 0.000000 0.000000 0.000000 15.008666 4.275617 6.894362 29.740347 -1.025383 -0.224748 -20.037914 0.585146 2.978759 -3.242366 13.379521 24.991817 -91.531219 5.796543 -0.603275 -51.063187 3.623621 80.965408 -13.964198 -9.935307 -56.512497 -14.613704 -11.094149 21.496788 70.596474 -0.453780 71.408470 31.192329 -36.152119 29.642527 36.010612 -5.936928 -80.974983 18.813507 12.040628 20.975475 19.553137 0.796772 -0.286083 9.258494 -10.222171 6.567094 33.141670 4.296576 2.176666 2.749643 0.204617 -0.568184 9.482890 -7.277443 14.840232 
0.006011 48.730106 2.377105 -11.836500 -0.328337 8.554826 0.000000 0.000000 0.000000 14.605113 4.168971 6.893638 29.622801 -0.976556 -0.214979 -19.895565 0.136551 2.841812 -3.332664 13.724462 24.988354 -91.589958 5.737891 -0.588059 -51.288246 3.062618 81.566505 -14.131697 -9.919824 -56.433132 -14.719439 -11.213433 21.441364 70.993202 -0.473064 71.656998 30.618826 -36.183571 28.869440 35.849926 -6.319148 -80.981133 18.726559 11.776416 20.896242 18.889488 1.005101 -0.224364 9.507726 -10.144298 6.544318 32.224564 4.257454 2.150561 3.625725 0.360881 -0.491927 9.006334 -7.976264 13.419156 
-0.053038 48.690266 2.365219 -11.465381 -0.569346 8.828560 0.000000 0.000000 0.000000 14.228426 4.265657 6.923576 29.309752 -0.869135 -0.205203 -19.901270 -0.185343 2.685533 -3.471766 14.412104 24.993677 -91.902992 5.409525 -0.403402 -51.131672 2.680680 82.171898 -14.204464 -9.981629 -56.368073 -14.927662 -11.407982 21.330797 71.463638 -0.665377 71.989021 30.358692 -36.439262 28.100710 35.429790 -6.395213 -80.941208 17.676788 12.341748 21.200951 19.923155 1.040673 -0.259555 9.750144 -10.948945 5.903621 31.737082 4.657724 2.281709 3.775146 0.205243 -0.488119 9.027187 -7.874078 14.029927 
-0.135236 48.601055 2.336809 -10.951138 -0.915470 9.327312 0.000000 0.000000 0.000000 13.714300 4.410431 6.993961 28.869167 -0.644528 -0.175880 -20.066509 -0.409775 2.470710 -3.732079 15.184151 24.996323 -92.352104 4.831130 -0.168178 -50.671375 2.614350 82.683998 -14.094362 -10.150174 -56.353882 -15.249349 -11.613202 21.206499 71.778656 -1.022667 72.262634 30.610090 -36.854057 27.863163 34.876034 -6.065599 -80.870323 15.617126 13.376366 21.767616 22.332083 1.063008 -0.415335 9.877461 -12.401320 5.254366 31.374952 5.253486 2.453433 3.412290 -0.097111 -0.584383 9.297794 -7.636905 15.224288 
-0.194351 48.489780 2.282337 -10.276769 -1.182956 9.992317 0.000000 0.000000 0.000000 13.090942 4.477907 7.033668 28.467623 -0.302733 -0.156299 -20.342485 -0.526956 2.197352 -4.178174 15.733646 24.988102 -92.800247 4.139267 0.072003 -50.092945 2.890794 82.876129 -13.817595 -10.270851 -56.399883 -15.694912 -11.748457 21.064062 71.813316 -1.440318 72.381165 31.306040 -37.258286 28.151749 34.294800 -5.544075 -80.780388 12.976757 14.305806 22.322182 25.268158 1.287374 -0.564156 9.827566 -14.010727 4.950581 30.982277 5.721729 2.573241 2.846690 -0.292144 -0.694812 9.351949 -7.813251 15.571744 
